<?xml version="1.0" standalone="no"?><!DOCTYPE svg PUBLIC "-//W3C//DTD SVG 1.1//EN" "http://www.w3.org/Graphics/SVG/1.1/DTD/svg11.dtd"><svg t="1529916447190" class="icon" style="" viewBox="0 0 1024 1024" version="1.1" xmlns="http://www.w3.org/2000/svg" p-id="2552" xmlns:xlink="http://www.w3.org/1999/xlink" width="200" height="200"><defs><style type="text/css"></style></defs><path d="M810.666667 597.333333v128h85.333333v-170.666666h85.333333v256h-256v-170.666667h-85.333333v341.333333h-85.333333V554.666667h256v42.666666zM42.666667 42.666667h426.666666v426.666666H42.666667V42.666667z m85.333333 85.333333v256h256V128H128z m85.333333 85.333333h85.333334v85.333334H213.333333V213.333333z m-170.666666 341.333334h426.666666v426.666666H42.666667V554.666667z m85.333333 85.333333v256h256v-256H128z m85.333333 85.333333h85.333334v85.333334H213.333333v-85.333334z m597.333334 170.666667v85.333333h-85.333334v-85.333333h85.333334z m170.666666 0v85.333333h-85.333333v-85.333333h85.333333zM554.666667 42.666667h426.666666v426.666666H554.666667V42.666667z m85.333333 85.333333v256h256V128h-256z m85.333333 85.333333h85.333334v85.333334h-85.333334V213.333333z" fill="#F76038" p-id="2553"></path></svg>