<?xml version="1.0" standalone="no"?><!DOCTYPE svg PUBLIC "-//W3C//DTD SVG 1.1//EN" "http://www.w3.org/Graphics/SVG/1.1/DTD/svg11.dtd"><svg t="1529919427443" class="icon" style="" viewBox="0 0 1024 1024" version="1.1" xmlns="http://www.w3.org/2000/svg" p-id="2301" xmlns:xlink="http://www.w3.org/1999/xlink" width="40" height="40"><defs><style type="text/css"></style></defs><path d="M647.558487 162.934008C604.203421 148.734626 558.588238 141.409524 512 141.409524 273.731577 141.409524 80.457143 332.731692 80.457143 568.888889 80.457143 805.046089 273.731577 996.368252 512 996.368252 750.268423 996.368252 943.542857 805.046089 943.542857 568.888889 943.542857 498.811312 926.480252 431.104162 894.285839 370.382225 886.716862 356.106358 869.008113 350.669351 854.732251 358.238331 840.456382 365.80731 835.019374 383.516056 842.588357 397.791923 870.335312 450.125515 885.028571 508.43071 885.028571 568.888889 885.028571 772.595814 718.084108 937.853967 512 937.853967 305.915892 937.853967 138.971429 772.595814 138.971429 568.888889 138.971429 365.181965 305.915892 199.923809 512 199.923809 554.01966 199.923809 595.052057 206.78627 633.90065 220.066056L542.65579 268.581809C528.785184 275.956941 523.58057 293.294752 531.030958 307.306895 538.481347 321.319038 555.765427 326.699399 569.636034 319.324266L720.325756 239.20112C727.261059 235.513554 732.029864 229.335318 734.133545 222.327455 736.237226 215.319593 735.675783 207.482105 731.950588 200.476033L651.009859 48.24866C643.55947 34.236518 626.275389 28.856157 612.404783 36.231289 598.534177 43.606421 593.329562 60.944233 600.779951 74.956376L647.558487 162.934008Z" p-id="2302" fill="#999999"></path></svg>