<svg 
 xmlns="http://www.w3.org/2000/svg"
 xmlns:xlink="http://www.w3.org/1999/xlink"
 width="36px" height="42px">
<path fill-rule="evenodd"  fill="rgb(245, 94, 63)"
 d="M34.000,42.000 L2.000,42.000 C0.895,42.000 -0.000,41.105 -0.000,40.000 L-0.000,37.000 C-0.000,33.686 2.686,31.000 6.000,31.000 L30.000,31.000 C33.314,31.000 36.000,33.686 36.000,37.000 L36.000,40.000 C36.000,41.105 35.105,42.000 34.000,42.000 ZM18.000,28.000 C10.268,28.000 4.000,21.732 4.000,14.000 C4.000,6.268 10.268,-0.000 18.000,-0.000 C25.732,-0.000 32.000,6.268 32.000,14.000 C32.000,21.732 25.732,28.000 18.000,28.000 ZM14.000,19.000 C14.000,21.209 15.791,23.000 18.000,23.000 C20.209,23.000 22.000,21.209 22.000,19.000 L14.000,19.000 Z"/>
</svg>
