<svg 
 xmlns="http://www.w3.org/2000/svg"
 xmlns:xlink="http://www.w3.org/1999/xlink"
 width="34px" height="43px">
<path fill-rule="evenodd"  fill="rgb(153, 153, 153)"
 d="M28.000,42.969 L2.000,42.969 C0.895,42.969 0.000,42.073 0.000,40.969 L0.000,2.969 C0.000,1.864 0.895,0.969 2.000,0.969 L32.000,0.969 C33.105,0.969 34.000,1.864 34.000,2.969 L34.000,36.969 C34.000,40.282 31.314,42.969 28.000,42.969 ZM31.000,4.000 L3.000,4.000 L3.000,40.000 L27.000,40.000 C29.209,40.000 31.000,38.209 31.000,36.000 L31.000,4.000 ZM7.000,22.000 L27.000,22.000 L27.000,25.000 L7.000,25.000 L7.000,22.000 ZM7.000,13.000 L17.000,13.000 L17.000,16.000 L7.000,16.000 L7.000,13.000 Z"/>
</svg>
