<svg 
 xmlns="http://www.w3.org/2000/svg"
 xmlns:xlink="http://www.w3.org/1999/xlink"
 width="36px" height="42px">
<path fill-rule="evenodd"  fill="rgb(245, 94, 63)"
 d="M34.000,42.000 L26.000,42.000 C24.895,42.000 24.000,41.105 24.000,40.000 L24.000,31.000 L24.000,30.000 C24.000,28.895 23.105,28.000 22.000,28.000 L14.000,28.000 C12.895,28.000 12.000,28.895 12.000,30.000 L12.000,31.000 L12.000,40.000 C12.000,41.105 11.105,42.000 10.000,42.000 L2.000,42.000 C0.895,42.000 -0.000,41.105 -0.000,40.000 L-0.000,28.000 L-0.000,18.000 L-0.000,17.000 L36.000,17.000 L36.000,18.000 L36.000,29.000 L36.000,40.000 C36.000,41.105 35.105,42.000 34.000,42.000 ZM17.996,-0.001 L35.995,17.000 L-0.001,17.000 L17.996,-0.001 Z"/>
</svg>
