<svg 
 xmlns="http://www.w3.org/2000/svg"
 xmlns:xlink="http://www.w3.org/1999/xlink"
 width="34px" height="43px">
<path fill-rule="evenodd"  fill="rgb(245, 94, 63)"
 d="M28.000,42.969 L2.000,42.969 C0.895,42.969 0.000,42.073 0.000,40.969 L0.000,2.969 C0.000,1.864 0.895,0.969 2.000,0.969 L32.000,0.969 C33.105,0.969 34.000,1.864 34.000,2.969 L34.000,36.969 C34.000,40.282 31.314,42.969 28.000,42.969 ZM17.000,14.000 C17.000,13.448 16.552,13.000 16.000,13.000 L8.000,13.000 C7.448,13.000 7.000,13.448 7.000,14.000 L7.000,15.000 C7.000,15.552 7.448,16.000 8.000,16.000 L16.000,16.000 C16.552,16.000 17.000,15.552 17.000,15.000 L17.000,14.000 ZM27.000,23.000 C27.000,22.448 26.552,22.000 26.000,22.000 L8.000,22.000 C7.448,22.000 7.000,22.448 7.000,23.000 L7.000,24.000 C7.000,24.552 7.448,25.000 8.000,25.000 L26.000,25.000 C26.552,25.000 27.000,24.552 27.000,24.000 L27.000,23.000 Z"/>
</svg>
