<svg 
 xmlns="http://www.w3.org/2000/svg"
 xmlns:xlink="http://www.w3.org/1999/xlink"
 width="22px" height="18px">
<path fill-rule="evenodd"  fill="rgb(153, 153, 153)"
 d="M19.939,13.949 C19.549,14.340 18.916,14.340 18.525,13.949 C18.134,13.559 18.134,12.926 18.525,12.535 C20.478,10.583 20.478,7.417 18.525,5.464 C18.134,5.074 18.134,4.440 18.525,4.050 C18.916,3.659 19.549,3.659 19.939,4.050 C22.673,6.784 22.673,11.216 19.939,13.949 ZM15.697,12.535 C15.306,12.926 14.673,12.926 14.282,12.535 C13.892,12.145 13.892,11.512 14.282,11.121 L14.264,11.103 C14.809,10.559 15.147,9.808 15.147,8.977 C15.147,8.162 14.819,7.425 14.291,6.884 C14.289,6.881 14.285,6.881 14.282,6.878 C13.892,6.488 13.892,5.855 14.282,5.464 C14.673,5.074 15.306,5.074 15.697,5.464 L15.719,5.487 C16.600,6.388 17.147,7.617 17.147,8.977 C17.147,10.271 16.642,11.439 15.835,12.327 C15.793,12.398 15.758,12.474 15.697,12.535 ZM12.000,18.000 L6.000,13.000 L1.000,13.000 C0.448,13.000 -0.000,12.552 -0.000,12.000 L-0.000,6.000 C-0.000,5.448 0.448,5.000 1.000,5.000 L6.000,5.000 L6.000,5.000 L12.000,-0.000 C12.552,-0.000 13.000,0.447 13.000,0.999 L13.000,17.000 C13.000,17.552 12.552,18.000 12.000,18.000 Z"/>
</svg>
