<svg 
 xmlns="http://www.w3.org/2000/svg"
 xmlns:xlink="http://www.w3.org/1999/xlink"
 width="24px" height="24px">
<path fill-rule="evenodd"  fill="rgb(51, 51, 51)"
 d="M14.261,11.982 L23.495,21.216 C24.123,21.845 24.123,22.865 23.495,23.494 C22.865,24.124 21.844,24.124 21.216,23.494 L11.982,14.261 L2.749,23.494 C2.120,24.124 1.099,24.124 0.470,23.494 C-0.159,22.865 -0.159,21.845 0.470,21.216 L9.704,11.982 L0.470,2.749 C-0.159,2.120 -0.159,1.100 0.470,0.471 C1.099,-0.158 2.120,-0.158 2.749,0.471 L11.982,9.704 L21.216,0.471 C21.844,-0.158 22.865,-0.158 23.495,0.471 C24.123,1.100 24.123,2.120 23.495,2.749 L14.261,11.982 Z"/>
</svg>
