<svg 
 xmlns="http://www.w3.org/2000/svg"
 xmlns:xlink="http://www.w3.org/1999/xlink"
 width="52px" height="52px">
<path fill-rule="evenodd"  fill="rgb(255, 255, 255)"
 d="M26.000,52.000 C11.641,52.000 -0.000,40.359 -0.000,26.000 C-0.000,11.641 11.641,-0.000 26.000,-0.000 C40.359,-0.000 52.000,11.641 52.000,26.000 C52.000,40.359 40.359,52.000 26.000,52.000 ZM26.000,3.000 C13.297,3.000 3.000,13.297 3.000,26.000 C3.000,38.703 13.297,49.000 26.000,49.000 C38.703,49.000 49.000,38.703 49.000,26.000 C49.000,13.297 38.703,3.000 26.000,3.000 ZM28.121,26.707 L34.132,32.717 C34.717,33.303 34.717,34.253 34.132,34.839 C33.546,35.424 32.596,35.424 32.010,34.839 L26.000,28.828 L19.989,34.839 C19.404,35.424 18.454,35.424 17.868,34.839 C17.282,34.253 17.282,33.303 17.868,32.717 L23.878,26.707 L17.161,19.989 C16.575,19.404 16.575,18.454 17.161,17.868 C17.747,17.282 18.696,17.282 19.282,17.868 L26.000,24.586 L32.717,17.868 C33.303,17.282 34.253,17.282 34.838,17.868 C35.424,18.454 35.424,19.404 34.838,19.989 L28.121,26.707 Z"/>
</svg>
