<svg 
 xmlns="http://www.w3.org/2000/svg"
 xmlns:xlink="http://www.w3.org/1999/xlink"
 width="98px" height="98px">
<path fill-rule="evenodd"  fill="rgb(245, 94, 63)"
 d="M49.000,98.000 C21.938,98.000 -0.000,76.062 -0.000,49.000 C-0.000,21.938 21.938,-0.000 49.000,-0.000 C76.062,-0.000 98.000,21.938 98.000,49.000 C98.000,76.062 76.062,98.000 49.000,98.000 ZM65.923,34.408 L64.273,32.758 C63.362,31.847 61.885,31.847 60.974,32.758 L49.324,44.408 L37.574,32.668 C36.672,31.766 35.209,31.766 34.307,32.668 L32.673,34.300 C31.772,35.201 31.772,36.662 32.673,37.563 L44.427,49.305 L32.925,60.807 C32.013,61.718 32.013,63.195 32.925,64.107 L34.575,65.757 C35.486,66.668 36.963,66.668 37.875,65.757 L49.378,54.253 L60.442,65.306 C61.343,66.207 62.806,66.207 63.708,65.306 L65.342,63.674 C66.244,62.773 66.244,61.311 65.342,60.410 L54.276,49.355 L65.923,37.708 C66.834,36.797 66.834,35.320 65.923,34.408 Z"/>
</svg>
