<svg 
 xmlns="http://www.w3.org/2000/svg"
 xmlns:xlink="http://www.w3.org/1999/xlink"
 width="98px" height="98px">
<path fill-rule="evenodd"  fill="rgb(255, 157, 30)"
 d="M49.000,98.000 C21.938,98.000 -0.000,76.062 -0.000,49.000 C-0.000,21.938 21.938,-0.000 49.000,-0.000 C76.062,-0.000 98.000,21.938 98.000,49.000 C98.000,76.062 76.062,98.000 49.000,98.000 ZM51.987,26.848 C51.987,25.831 51.092,25.007 49.987,25.007 L47.987,25.007 C46.883,25.007 45.987,25.832 45.987,26.848 L45.987,58.157 C45.987,59.174 46.882,59.999 47.987,59.998 L49.987,59.998 C51.091,59.998 51.987,59.174 51.987,58.157 L51.987,26.848 ZM49.000,64.000 C46.791,64.000 45.000,65.791 45.000,68.000 C45.000,70.209 46.791,72.000 49.000,72.000 C51.209,72.000 53.000,70.209 53.000,68.000 C53.000,65.791 51.209,64.000 49.000,64.000 Z"/>
</svg>
