<svg 
 xmlns="http://www.w3.org/2000/svg"
 xmlns:xlink="http://www.w3.org/1999/xlink"
 width="98px" height="98px">
<path fill-rule="evenodd"  fill="rgb(17, 202, 134)"
 d="M49.000,98.000 C21.938,98.000 -0.000,76.062 -0.000,49.000 C-0.000,21.938 21.938,-0.000 49.000,-0.000 C76.062,-0.000 98.000,21.938 98.000,49.000 C98.000,76.062 76.062,98.000 49.000,98.000 ZM72.923,34.408 L71.273,32.758 C70.362,31.847 68.885,31.847 67.974,32.758 L43.225,57.507 L30.026,44.308 C29.114,43.396 27.637,43.396 26.725,44.308 L25.075,45.958 C24.164,46.869 24.164,48.346 25.075,49.258 L41.575,65.757 C42.486,66.668 43.963,66.668 44.875,65.757 L46.525,64.107 C46.526,64.106 46.526,64.105 46.527,64.104 L72.923,37.708 C73.834,36.797 73.834,35.320 72.923,34.408 Z"/>
</svg>
