<svg 
 xmlns="http://www.w3.org/2000/svg"
 xmlns:xlink="http://www.w3.org/1999/xlink"
 width="36px" height="30px">
<path fill-rule="evenodd"  fill="rgb(51, 51, 51)"
 d="M32.000,30.000 L4.000,30.000 C1.791,30.000 -0.000,28.209 -0.000,26.000 L-0.000,10.000 C-0.000,7.791 1.791,6.000 4.000,6.000 L32.000,6.000 C34.209,6.000 36.000,7.791 36.000,10.000 L36.000,26.000 C36.000,28.209 34.209,30.000 32.000,30.000 ZM21.500,10.986 L18.000,14.487 L14.499,10.986 L12.999,12.486 L15.513,15.000 L14.000,15.000 C13.448,15.000 13.000,15.448 13.000,16.000 C13.000,16.552 13.448,17.000 14.000,17.000 L17.000,17.000 L17.000,19.000 L14.000,19.000 C13.448,19.000 13.000,19.448 13.000,20.000 C13.000,20.552 13.448,21.000 14.000,21.000 L17.000,21.000 L17.000,24.000 C17.000,24.552 17.448,25.000 18.000,25.000 C18.552,25.000 19.000,24.552 19.000,24.000 L19.000,21.000 L22.000,21.000 C22.552,21.000 23.000,20.552 23.000,20.000 C23.000,19.448 22.552,19.000 22.000,19.000 L19.000,19.000 L19.000,17.000 L22.000,17.000 C22.552,17.000 23.000,16.552 23.000,16.000 C23.000,15.448 22.552,15.000 22.000,15.000 L20.487,15.000 L23.001,12.486 L21.500,10.986 ZM29.000,4.000 L7.000,4.000 C5.895,4.000 5.000,3.105 5.000,2.000 C5.000,0.895 5.895,-0.000 7.000,-0.000 L29.000,-0.000 C30.105,-0.000 31.000,0.895 31.000,2.000 C31.000,3.105 30.105,4.000 29.000,4.000 Z"/>
</svg>
