<svg 
 xmlns="http://www.w3.org/2000/svg"
 xmlns:xlink="http://www.w3.org/1999/xlink"
 width="36px" height="32px">
<path fill-rule="evenodd"  fill="rgb(51, 51, 51)"
 d="M13.093,20.242 C12.931,20.325 12.747,20.372 12.553,20.372 C12.103,20.372 11.712,20.123 11.506,19.754 L11.428,19.580 L8.151,12.336 C8.115,12.257 8.093,12.168 8.093,12.081 C8.093,11.747 8.362,11.476 8.693,11.476 C8.828,11.476 8.952,11.521 9.053,11.596 L12.919,14.370 C13.202,14.557 13.539,14.666 13.902,14.666 C14.119,14.666 14.325,14.625 14.518,14.554 L32.703,6.400 C29.444,2.529 24.075,-0.000 18.000,-0.000 C8.059,-0.000 0.000,6.766 0.000,15.112 C0.000,19.666 2.425,23.765 6.220,26.535 C6.524,26.754 6.723,27.114 6.723,27.520 C6.723,27.654 6.695,27.777 6.660,27.905 C6.357,29.045 5.872,30.868 5.849,30.954 C5.811,31.097 5.752,31.246 5.752,31.396 C5.752,31.729 6.021,32.000 6.352,32.000 C6.483,32.000 6.589,31.951 6.699,31.888 L10.640,29.596 C10.936,29.423 11.250,29.316 11.595,29.316 C11.779,29.316 11.957,29.345 12.125,29.396 C13.963,29.929 15.946,30.225 18.000,30.225 C27.941,30.225 36.000,23.459 36.000,15.112 C36.000,12.585 35.257,10.204 33.950,8.110 L13.224,20.165 L13.093,20.242 Z"/>
</svg>
