<svg 
 xmlns="http://www.w3.org/2000/svg"
 xmlns:xlink="http://www.w3.org/1999/xlink"
 width="44px" height="44px">
<path fill-rule="evenodd"  fill="rgb(245, 94, 63)"
 d="M22.000,44.000 C9.850,44.000 0.000,34.150 0.000,22.000 C0.000,9.850 9.850,0.000 22.000,0.000 C34.150,0.000 44.000,9.850 44.000,22.000 C44.000,34.150 34.150,44.000 22.000,44.000 ZM31.000,20.000 L24.000,20.000 L24.000,13.000 C24.000,11.895 23.105,11.000 22.000,11.000 C20.895,11.000 20.000,11.895 20.000,13.000 L20.000,20.000 L13.000,20.000 C11.895,20.000 11.000,20.895 11.000,22.000 C11.000,23.105 11.895,24.000 13.000,24.000 L20.000,24.000 L20.000,31.000 C20.000,32.105 20.895,33.000 22.000,33.000 C23.105,33.000 24.000,32.105 24.000,31.000 L24.000,24.000 L31.000,24.000 C32.105,24.000 33.000,23.105 33.000,22.000 C33.000,20.895 32.105,20.000 31.000,20.000 Z"/>
</svg>
