<svg 
 xmlns="http://www.w3.org/2000/svg"
 xmlns:xlink="http://www.w3.org/1999/xlink"
 width="23px" height="23px">
<path fill-rule="evenodd"  fill="rgb(102, 102, 102)"
 d="M11.500,23.000 C5.149,23.000 -0.000,17.851 -0.000,11.500 C-0.000,5.149 5.149,-0.000 11.500,-0.000 C17.851,-0.000 23.000,5.149 23.000,11.500 C23.000,17.851 17.851,23.000 11.500,23.000 ZM11.500,1.656 C6.063,1.656 1.656,6.063 1.656,11.500 C1.656,16.937 6.063,21.344 11.500,21.344 C16.937,21.344 21.344,16.937 21.344,11.500 C21.344,6.063 16.937,1.656 11.500,1.656 ZM13.663,12.051 C13.290,12.358 13.010,12.704 12.823,13.091 C12.610,13.477 12.503,13.918 12.503,14.411 L12.503,14.751 L10.363,14.751 L10.363,14.411 C10.363,13.637 10.496,13.004 10.763,12.510 C11.017,11.978 11.770,11.150 13.023,10.031 L13.363,9.651 C13.736,9.171 13.923,8.684 13.923,8.191 C13.923,7.511 13.730,6.964 13.343,6.551 C12.943,6.151 12.376,5.951 11.643,5.951 C10.736,5.951 10.083,6.237 9.683,6.811 C9.323,7.291 9.143,7.971 9.143,8.851 L7.043,8.851 C7.043,7.397 7.463,6.251 8.303,5.411 C9.143,4.558 10.303,4.131 11.783,4.131 C13.076,4.131 14.116,4.484 14.903,5.191 C15.703,5.884 16.103,6.837 16.103,8.050 C16.103,9.024 15.850,9.838 15.343,10.491 C15.170,10.704 14.610,11.224 13.663,12.051 ZM11.423,15.830 C11.863,15.830 12.216,15.964 12.483,16.230 C12.763,16.484 12.903,16.824 12.903,17.251 C12.903,17.651 12.756,17.998 12.463,18.291 C12.170,18.558 11.823,18.691 11.423,18.691 C11.010,18.691 10.663,18.550 10.383,18.271 C10.103,17.990 9.963,17.651 9.963,17.251 C9.963,16.824 10.103,16.484 10.383,16.230 C10.650,15.964 10.996,15.830 11.423,15.830 Z"/>
</svg>
