<svg 
 xmlns="http://www.w3.org/2000/svg"
 xmlns:xlink="http://www.w3.org/1999/xlink"
 width="33px" height="32px">
<path fill-rule="evenodd"  fill="rgb(245, 94, 63)"
 d="M16.031,32.000 C7.177,32.000 -0.000,24.837 -0.000,16.000 C-0.000,7.163 7.177,0.000 16.031,0.000 C24.885,0.000 32.063,7.163 32.063,16.000 C32.063,24.837 24.885,32.000 16.031,32.000 ZM24.031,15.986 C24.031,15.182 23.380,14.531 22.577,14.531 L17.500,14.531 L17.500,9.455 C17.500,8.651 16.849,8.000 16.045,8.000 L16.017,8.000 C15.214,8.000 14.563,8.651 14.563,9.455 L14.563,14.531 L9.455,14.531 C8.651,14.531 8.000,15.182 8.000,15.986 L8.000,16.014 C8.000,16.818 8.651,17.469 9.455,17.469 L14.563,17.469 L14.563,22.545 C14.563,23.349 15.214,24.000 16.017,24.000 L16.045,24.000 C16.849,24.000 17.500,23.349 17.500,22.545 L17.500,17.469 L22.577,17.469 C23.380,17.469 24.031,16.818 24.031,16.014 L24.031,15.986 Z"/>
</svg>
