<svg 
 xmlns="http://www.w3.org/2000/svg"
 xmlns:xlink="http://www.w3.org/1999/xlink"
 width="19px" height="21px">
<path fill-rule="evenodd"  fill="rgb(153, 153, 153)"
 d="M18.000,4.000 L1.000,4.000 C0.448,4.000 -0.000,3.552 -0.000,3.000 C-0.000,2.448 0.448,2.000 1.000,2.000 L8.000,2.000 L8.000,1.000 C8.000,0.448 8.448,0.000 9.000,0.000 L10.000,0.000 C10.552,0.000 11.000,0.448 11.000,1.000 L11.000,2.000 L18.000,2.000 C18.552,2.000 19.000,2.448 19.000,3.000 C19.000,3.552 18.552,4.000 18.000,4.000 ZM8.000,6.000 L8.000,16.000 L6.000,16.000 L6.000,6.000 L8.000,6.000 ZM13.000,6.000 L13.000,16.000 L11.000,16.000 L11.000,6.000 L13.000,6.000 ZM3.000,18.000 C3.000,18.552 3.448,19.000 4.000,19.000 L15.000,19.000 C15.552,19.000 16.000,18.552 16.000,18.000 L16.000,6.000 L18.000,6.000 L18.000,19.000 C18.000,20.105 17.105,21.000 16.000,21.000 L3.000,21.000 C1.895,21.000 1.000,20.105 1.000,19.000 L1.000,6.000 L3.000,6.000 L3.000,18.000 Z"/>
</svg>
