<svg 
 xmlns="http://www.w3.org/2000/svg"
 xmlns:xlink="http://www.w3.org/1999/xlink"
 width="24px" height="24px">
<path fill-rule="evenodd"  fill="rgb(245, 94, 63)"
 d="M12.000,24.000 C5.373,24.000 -0.000,18.627 -0.000,12.000 C-0.000,5.373 5.373,-0.000 12.000,-0.000 C18.627,-0.000 24.000,5.373 24.000,12.000 C24.000,18.627 18.627,24.000 12.000,24.000 ZM12.000,2.000 C6.477,2.000 2.000,6.477 2.000,12.000 C2.000,17.523 6.477,22.000 12.000,22.000 C17.523,22.000 22.000,17.523 22.000,12.000 C22.000,6.477 17.523,2.000 12.000,2.000 ZM14.888,17.999 L14.888,17.999 L14.831,17.998 C13.497,17.930 11.695,16.687 10.011,14.673 L9.389,13.929 C7.705,11.915 6.823,9.947 7.029,8.666 C7.175,7.762 8.532,6.999 9.308,6.999 C9.690,6.999 9.828,7.188 9.877,7.300 C10.316,8.072 10.859,9.416 10.862,9.897 L10.862,9.932 L10.849,9.964 C10.752,10.217 10.536,10.339 10.345,10.445 C10.093,10.587 9.950,10.679 9.932,10.945 C9.927,11.026 9.998,11.394 11.109,12.749 L11.583,13.317 C12.697,14.619 13.048,14.759 13.130,14.771 C13.399,14.808 13.525,14.691 13.718,14.481 C13.866,14.322 14.032,14.140 14.308,14.100 L14.343,14.096 L14.377,14.103 C14.862,14.204 16.104,14.996 16.809,15.584 C16.911,15.651 17.088,15.850 16.948,16.289 C16.727,16.977 15.765,17.999 14.888,17.999 Z"/>
</svg>
