<svg 
 xmlns="http://www.w3.org/2000/svg"
 xmlns:xlink="http://www.w3.org/1999/xlink"
 width="46px" height="42px">
<path fill-rule="evenodd"  fill="rgb(255, 255, 255)"
 d="M41.121,21.714 C40.508,23.184 39.359,23.579 38.333,23.579 L13.807,23.579 L14.548,27.781 L37.875,27.781 C39.031,27.781 39.969,28.719 39.969,29.875 C39.969,31.031 39.031,31.969 37.875,31.969 L13.719,31.969 C13.574,31.969 13.432,31.954 13.295,31.926 C13.248,31.938 13.204,31.957 13.156,31.965 C12.013,32.165 10.924,31.403 10.721,30.263 L6.373,5.625 L2.797,5.625 C1.252,5.625 -0.000,4.373 -0.000,2.828 C-0.000,1.283 1.252,0.031 2.797,0.031 L7.203,0.031 C7.294,0.031 7.379,0.049 7.467,0.058 C7.485,0.054 7.501,0.046 7.519,0.043 C8.662,-0.157 9.751,0.605 9.953,1.746 L10.885,7.024 L44.141,7.024 C45.168,7.024 46.000,7.859 46.000,8.889 L41.121,21.714 ZM15.344,33.594 C17.656,33.594 19.531,35.476 19.531,37.797 C19.531,40.118 17.656,42.000 15.344,42.000 C13.031,42.000 11.156,40.118 11.156,37.797 C11.156,35.476 13.031,33.594 15.344,33.594 ZM34.844,33.594 C37.156,33.594 39.031,35.476 39.031,37.797 C39.031,40.118 37.156,42.000 34.844,42.000 C32.531,42.000 30.656,40.118 30.656,37.797 C30.656,35.476 32.531,33.594 34.844,33.594 Z"/>
</svg>
