<svg 
 xmlns="http://www.w3.org/2000/svg"
 xmlns:xlink="http://www.w3.org/1999/xlink"
 width="44px" height="44px">
<path fill-rule="evenodd"  fill="rgb(245, 94, 63)"
 d="M22.000,44.000 C9.850,44.000 0.000,34.150 0.000,22.000 C0.000,9.850 9.850,0.000 22.000,0.000 C34.150,0.000 44.000,9.850 44.000,22.000 C44.000,34.150 34.150,44.000 22.000,44.000 ZM32.752,14.317 C32.166,13.731 31.216,13.731 30.631,14.317 L19.378,25.570 L13.368,19.560 C12.782,18.975 11.832,18.975 11.246,19.560 C10.660,20.146 10.660,21.096 11.246,21.682 L18.318,28.752 C18.903,29.338 19.853,29.338 20.439,28.752 L32.752,16.439 C33.338,15.853 33.338,14.903 32.752,14.317 Z"/>
</svg>
